<?xml version="1.0" standalone="no"?><!DOCTYPE svg PUBLIC "-//W3C//DTD SVG 1.1//EN" "http://www.w3.org/Graphics/SVG/1.1/DTD/svg11.dtd"><svg t="1578481802526" class="icon" viewBox="0 0 1024 1024" version="1.1" xmlns="http://www.w3.org/2000/svg" p-id="5836" xmlns:xlink="http://www.w3.org/1999/xlink" width="200" height="200"><defs><style type="text/css"></style></defs><path d="M768 928H256c-105.888 0-192-86.112-192-192s86.112-192 192-192h64v64H256c-70.592 0-128 57.408-128 128s57.408 128 128 128h512c70.592 0 128-57.408 128-128a127.872 127.872 0 0 0-87.84-121.6 31.968 31.968 0 0 1-21.856-27.584 62.304 62.304 0 0 1-0.256-4.224 170.88 170.88 0 0 0-95.936-152.896l27.872-57.6a235.456 235.456 0 0 1 131.136 189.824A191.552 191.552 0 0 1 960 736c0 105.888-86.112 192-192 192z" fill="#1DDDCB" p-id="5837"></path><path d="M320 128h384v608H320z" fill="#E3FFFA" p-id="5838"></path><path d="M704 768H320a32 32 0 0 1-32-32V128a32 32 0 0 1 32-32h384a32 32 0 0 1 32 32v608a32 32 0 0 1-32 32z m-352-64h320V160H352v544z" fill="#1DDDCB" p-id="5839"></path><path d="M512 576m-64 0a64 64 0 1 0 128 0 64 64 0 1 0-128 0Z" fill="#1DDDCB" p-id="5840"></path><path d="M416 256h192v64h-192z" fill="#1DDDCB" p-id="5841"></path><path d="M416 384h192v64h-192z" fill="#1DDDCB" p-id="5842"></path></svg>