<?xml version="1.0" standalone="no"?><!DOCTYPE svg PUBLIC "-//W3C//DTD SVG 1.1//EN" "http://www.w3.org/Graphics/SVG/1.1/DTD/svg11.dtd"><svg t="1578481433961" class="icon" viewBox="0 0 1024 1024" version="1.1" xmlns="http://www.w3.org/2000/svg" p-id="6000" xmlns:xlink="http://www.w3.org/1999/xlink" width="200" height="200"><defs><style type="text/css"></style></defs><path d="M575.952 938.322v-191.85h-127.902v191.85H128.3V1023.6h767.402v-85.278z" fill="#656D78" p-id="6001"></path><path d="M618.572 938.322h-42.62v-191.85h-127.902v191.85h-42.654V1023.6H618.572z" fill="#CCD1D9" p-id="6002"></path><path d="M703.85 0.4c-87.804 0-167.37 35.394-225.136 92.708-37.096-31.242-84.964-50.086-137.268-50.086-117.72 0-213.144 95.442-213.144 213.16 0 16.082 1.78 31.726 5.152 46.778-76.16 17.08-133.052 85.09-133.052 166.4 0 94.16 76.346 170.54 170.524 170.54h660.826c52.772 0 191.85-63.95 191.85-319.766C1023.6 143.552 880.432 0.4 703.85 0.4z" fill="#A0D468" p-id="6003"></path><path d="M831.75 621.226H192.25V384.084l127.9-85.262h383.7l127.9 85.262z" fill="#434A54" p-id="6004"></path><path d="M192.25 384.084h639.5V639.9H192.25z" fill="#656D78" p-id="6005"></path><path d="M746.472 490.674c0 23.542-19.08 42.636-42.624 42.636s-42.654-19.094-42.654-42.636c0-23.544 19.112-42.638 42.654-42.638s42.624 19.092 42.624 42.638z" fill="#A0D468" p-id="6006"></path><path d="M298.822 533.31a21.344 21.344 0 0 1-15.082-6.244c-8.304-8.322-8.304-21.826 0-30.148l42.654-42.638c8.306-8.32 21.828-8.32 30.132 0 8.338 8.322 8.338 21.826 0 30.148l-42.624 42.638a21.326 21.326 0 0 1-15.08 6.244zM384.1 533.31a21.286 21.286 0 0 1-15.082-6.244c-8.336-8.322-8.336-21.826 0-30.148l42.624-42.638c8.338-8.32 21.828-8.32 30.164 0 8.306 8.322 8.306 21.826 0 30.148l-42.654 42.638a21.268 21.268 0 0 1-15.052 6.244zM469.346 533.31a21.264 21.264 0 0 1-15.05-6.244c-8.336-8.322-8.336-21.826 0-30.148l42.624-42.638c8.338-8.32 21.826-8.32 30.132 0 8.338 8.322 8.338 21.826 0 30.148l-42.624 42.638a21.28 21.28 0 0 1-15.082 6.244z" fill="#434A54" p-id="6007"></path><path d="M192.25 597.246h639.5v255.8H192.25z" fill="#656D78" p-id="6008"></path><path d="M192.25 599.932h639.5v42.624H192.25z" fill="#434A54" p-id="6009"></path><path d="M746.472 746.472c0 23.544-19.08 42.624-42.624 42.624s-42.654-19.078-42.654-42.624c0-23.542 19.112-42.624 42.654-42.624s42.624 19.082 42.624 42.624z" fill="#A0D468" p-id="6010"></path><path d="M298.822 789.096c-5.462 0-10.896-2.06-15.082-6.244-8.304-8.306-8.304-21.796 0-30.132l42.654-42.624c8.306-8.338 21.828-8.338 30.132 0 8.338 8.304 8.338 21.794 0 30.132l-42.624 42.624a21.19 21.19 0 0 1-15.08 6.244zM384.1 789.096c-5.464 0-10.928-2.06-15.082-6.244-8.336-8.306-8.336-21.796 0-30.132l42.624-42.624a21.314 21.314 0 0 1 30.164 0c8.306 8.304 8.306 21.794 0 30.132l-42.654 42.624a21.134 21.134 0 0 1-15.052 6.244zM469.346 789.096c-5.434 0-10.896-2.06-15.05-6.244-8.336-8.306-8.336-21.796 0-30.132l42.624-42.624c8.338-8.338 21.826-8.338 30.132 0 8.338 8.304 8.338 21.794 0 30.132l-42.624 42.624c-4.152 4.184-9.618 6.244-15.082 6.244z" fill="#434A54" p-id="6011"></path><path d="M405.396 937.668h213.176v42.624H405.396zM490.674 853.046h42.622v84.622h-42.622z" fill="#E6E9ED" p-id="6012"></path></svg>