<?xml version="1.0" standalone="no"?><!DOCTYPE svg PUBLIC "-//W3C//DTD SVG 1.1//EN" "http://www.w3.org/Graphics/SVG/1.1/DTD/svg11.dtd"><svg t="1578481815548" class="icon" viewBox="0 0 1024 1024" version="1.1" xmlns="http://www.w3.org/2000/svg" p-id="6310" xmlns:xlink="http://www.w3.org/1999/xlink" width="200" height="200"><defs><style type="text/css"></style></defs><path d="M768 512m-128 0a128 128 0 1 0 256 0 128 128 0 1 0-256 0Z" fill="#E0EBFE" p-id="6311"></path><path d="M64.96 672h503.04a32 32 0 1 0 0-64L64 607.04 64.96 416h500.48a32 32 0 1 0 0-64H64.96C29.152 352 0 381.12 0 416.96v190.08C0 642.88 29.152 672 64.96 672zM64.96 320h638.08C738.848 320 768 290.88 768 255.04V64.96C768 29.12 738.848 0 703.04 0H64.96C29.152 0 0 29.12 0 64.96v190.08C0 290.88 29.152 320 64.96 320z m0-256L704 64.96v190.08c0 0.576-0.416 0.96-0.96 0.96L64 255.04 64.96 64zM64.96 1024h638.08c35.808 0 64.96-29.12 64.96-64.96v-190.08c0-35.84-29.152-64.96-64.96-64.96H64.96C29.152 704 0 733.12 0 768.96v190.08C0 994.88 29.152 1024 64.96 1024z m0-256l639.04 0.96v190.08c0 0.576-0.416 0.96-0.96 0.96L64 959.04 64.96 768zM901.344 600.096c16.768-25.28 26.656-55.552 26.656-88.096 0-88.224-71.776-160-160-160s-160 71.776-160 160 71.776 160 160 160a158.912 158.912 0 0 0 88.096-26.656l113.28 113.28a31.904 31.904 0 0 0 45.248 0 32 32 0 0 0 0-45.248l-113.28-113.28zM768 608c-52.928 0-96-43.072-96-96s43.072-96 96-96 96 43.072 96 96-43.072 96-96 96z" fill="#5465CF" p-id="6312"></path><path d="M160 96c-35.296 0-64 28.704-64 64s28.704 64 64 64 64-28.704 64-64-28.704-64-64-64z m0 96a32.032 32.032 0 0 1 0-64 32.032 32.032 0 0 1 0 64zM96 512c0 35.296 28.704 64 64 64s64-28.704 64-64-28.704-64-64-64-64 28.704-64 64z m96 0a32.032 32.032 0 0 1-64 0 32 32 0 0 1 64 0zM160 800c-35.296 0-64 28.704-64 64s28.704 64 64 64 64-28.704 64-64-28.704-64-64-64z m0 96a32.032 32.032 0 0 1 0-64 32.032 32.032 0 0 1 0 64z" fill="#5465CF" p-id="6313"></path></svg>