<?xml version="1.0" standalone="no"?><!DOCTYPE svg PUBLIC "-//W3C//DTD SVG 1.1//EN" "http://www.w3.org/Graphics/SVG/1.1/DTD/svg11.dtd"><svg t="1578481768184" class="icon" viewBox="0 0 1024 1024" version="1.1" xmlns="http://www.w3.org/2000/svg" p-id="4827" xmlns:xlink="http://www.w3.org/1999/xlink" width="200" height="200"><defs><style type="text/css"></style></defs><path d="M512 0c282.76736 0 512 229.23264 512 512s-229.23264 512-512 512S0 794.76736 0 512 229.23264 0 512 0z" fill="#E2574C" p-id="4828"></path><path d="M870.4 737.28H153.6l0.01024 140.2368C245.97504 968.0896 372.4288 1024 512 1024s266.02496-55.9104 358.38976-146.4832L870.4 737.28z m0-174.08H153.6l0.02048 196.78208c0 38.35904 65.18784 69.44768 145.60256 69.44768V829.44h403.17952v-0.01024c92.79488 0 167.97696-35.87072 167.97696-80.128C870.37952 845.312 870.4 563.2 870.4 563.2z m0-133.12H153.6s0.02048 241.14176 0.02048 155.82208c0 38.35904 62.27968 69.44768 139.08992 69.44768V655.36H694.8864v-0.01024c96.95232 0 175.50336-35.87072 175.50336-80.128L870.4 430.08z" fill="#DADFE1" p-id="4829"></path><path d="M768 955.33056a513.98656 513.98656 0 0 0 102.4-77.824V419.84H768v535.49056z m-614.4-77.824a514.07872 514.07872 0 0 0 102.4 77.824V440.32H153.6v437.18656z" fill="#E1E5E7" p-id="4830"></path><path d="M734.08512 343.00928c-9.82016-48.75264-94.9248-87.00928-199.68-87.00928-81.07008 0-150.4768 20.71552-182.4768 53.64736-9.6256-1.46432-19.6608-2.46784-30.28992-2.46784-55.67488 0-100.80256 23.77728-100.80256 50.31936 0 5.28384 1.24928 13.4656 4.54656 18.20672-43.29472 12.04224-71.75168 30.94528-71.75168 56.576 0 38.35904 65.18784 69.44768 145.60256 69.44768V501.76h403.17952v-0.01024c92.79488 0 167.97696-35.87072 167.97696-80.13824-0.01024-39.07584-58.69568-71.5264-136.30464-78.60224z" fill="#F2F1EF" p-id="4831"></path><path d="M547.84 552.96a15.36 15.36 0 1 0 0.01024 30.73024A15.36 15.36 0 0 0 547.84 552.96z m0 174.08a15.36 15.36 0 1 0 0.01024 30.73024A15.36 15.36 0 0 0 547.84 727.04z m122.88 174.08a15.36 15.36 0 1 0 0.01024 30.73024A15.36 15.36 0 0 0 670.72 901.12z m-122.88 0a15.36 15.36 0 1 0 0.01024 30.73024A15.36 15.36 0 0 0 547.84 901.12z" fill="#9ECEC7" p-id="4832"></path><path d="M609.28 552.96a15.36 15.36 0 1 0 0.01024 30.73024A15.36 15.36 0 0 0 609.28 552.96z m61.44 30.72a15.36 15.36 0 1 0-0.01024-30.73024A15.36 15.36 0 0 0 670.72 583.68z m-61.44 143.36a15.36 15.36 0 1 0 0.01024 30.73024A15.36 15.36 0 0 0 609.28 727.04z m61.44 0a15.36 15.36 0 1 0 0.01024 30.73024A15.36 15.36 0 0 0 670.72 727.04z m-61.44 174.08a15.36 15.36 0 1 0 0.01024 30.73024A15.36 15.36 0 0 0 609.28 901.12z" fill="#3DB39E" p-id="4833"></path><path d="M460.8 542.72H307.2a10.24 10.24 0 0 0-10.24 10.24v10.24a10.24 10.24 0 0 0 10.24 10.24h153.6a10.24 10.24 0 0 0 10.24-10.24v-10.24a10.24 10.24 0 0 0-10.24-10.24z m0 40.96H307.2a10.24 10.24 0 0 0-10.24 10.24v10.24a10.24 10.24 0 0 0 10.24 10.24h153.6a10.24 10.24 0 0 0 10.24-10.24v-10.24a10.24 10.24 0 0 0-10.24-10.24z m0 133.12H307.2a10.24 10.24 0 0 0-10.24 10.24v10.24a10.24 10.24 0 0 0 10.24 10.24h153.6a10.24 10.24 0 0 0 10.24-10.24v-10.24a10.24 10.24 0 0 0-10.24-10.24z m0 40.96H307.2a10.24 10.24 0 0 0-10.24 10.24v10.24a10.24 10.24 0 0 0 10.24 10.24h153.6a10.24 10.24 0 0 0 10.24-10.24v-10.24a10.24 10.24 0 0 0-10.24-10.24z m0 133.12H307.2a10.24 10.24 0 0 0-10.24 10.24v10.24a10.24 10.24 0 0 0 10.24 10.24h153.6a10.24 10.24 0 0 0 10.24-10.24v-10.24a10.24 10.24 0 0 0-10.24-10.24z m0 40.96H307.2a10.24 10.24 0 0 0-10.24 10.24v10.24a10.24 10.24 0 0 0 10.24 10.24h153.6a10.24 10.24 0 0 0 10.24-10.24v-10.24a10.24 10.24 0 0 0-10.24-10.24z" fill="#C4C8CA" p-id="4834"></path><path d="M512 327.68c-56.55552 0-102.4 20.23424-102.4 51.2s45.84448 51.2 102.4 51.2 102.4-22.91712 102.4-51.2c0-28.27264-45.84448-51.2-102.4-51.2z m50.33984 39.3728L503.808 399.09376c-2.43712 1.3312-5.72416 1.80224-8.89856 1.59744-3.59424 0.512-7.55712 0.09216-10.36288-1.45408l-23.05024-12.61568c-4.23936-2.31424-4.23936-6.06208 0-8.37632 4.22912-2.31424 11.08992-2.31424 15.31904 0l17.27488 9.46176 52.98176-28.99968c4.21888-2.31424 11.04896-2.31424 15.26784 0 4.21888 2.29376 4.21888 6.0416 0 8.3456z" fill="#CECDCB" p-id="4835"></path><path d="M870.4 737.28l-0.02048 31.9488v-19.92704c0 44.25728-75.18208 80.128-167.97696 80.128V829.44H299.22304v-0.01024c-80.41472 0-145.60256-31.08864-145.60256-69.44768v16.0768V737.28H153.6v60.01664c25.2928 28.60032 79.59552 47.49312 145.62304 47.49312l403.17952 0.01024c76.14464-0.01024 139.96032-23.05024 167.99744-56.73984V737.28z m0-174.08l-0.02048 34.6112v-22.58944c0 44.25728-78.55104 80.128-175.50336 80.128V655.36H292.70016v-0.01024c-76.81024 0-139.08992-31.08864-139.08992-69.44768v18.26816V563.2H153.6v60.0576c24.75008 28.3136 77.07648 47.45216 139.10016 47.45216l402.176 0.01024c80.86528-0.01024 146.91328-22.70208 175.52384-56.69888V563.2z" fill="#AEB2B4" p-id="4836"></path><path d="M870.37952 597.8112v-22.58944c0 32.32768-42.00448 60.1088-102.37952 72.77568v15.9232c46.57152-9.13408 83.05664-26.92096 102.4-49.89952V563.2h-0.01024l-0.01024 34.6112zM256 668.35456v-15.52384c-58.97216-8.04864-102.37952-34.92864-102.37952-66.92864v17.47968V563.2H153.6v60.0576c19.68128 22.50752 56.832 39.17824 102.4 45.09696zM870.37952 766.93504v-17.63328c0 33.15712-42.19904 61.60384-102.37952 73.78944v15.58528c46.15168-8.97024 82.92352-27.21792 102.4-50.61632V737.28h-0.01024l-0.01024 29.65504zM256 841.89184v-15.57504c-59.31008-8.77568-102.37952-35.16416-102.37952-66.34496v15.36-38.06208H153.6v60.01664c19.5072 22.07744 56.30976 38.30784 102.4 44.60544z" fill="#BFC2C4" p-id="4837"></path></svg>