<?xml version="1.0" standalone="no"?><!DOCTYPE svg PUBLIC "-//W3C//DTD SVG 1.1//EN" "http://www.w3.org/Graphics/SVG/1.1/DTD/svg11.dtd"><svg t="1578481828277" class="icon" viewBox="0 0 1024 1024" version="1.1" xmlns="http://www.w3.org/2000/svg" p-id="7426" xmlns:xlink="http://www.w3.org/1999/xlink" width="200" height="200"><defs><style type="text/css"></style></defs><path d="M768 535.992H0V298.68l127.984-85.344H640l128 85.344z" fill="#434A54" p-id="7427"></path><path d="M0 298.68h768v256.016H0zM0 597.32h703.968v256H0z" fill="#656D78" p-id="7428"></path><path d="M106.656 469.336a21.36 21.36 0 0 0 15.094-6.25l42.656-42.656a21.292 21.292 0 0 0 6.25-15.094c0-11.782-9.546-21.344-21.328-21.344a21.36 21.36 0 0 0-15.094 6.25l-42.656 42.688a21.218 21.218 0 0 0-6.25 15.062c0 11.782 9.548 21.344 21.328 21.344zM191.984 469.336c5.906 0 11.234-2.406 15.094-6.25l42.656-42.656a21.292 21.292 0 0 0 6.25-15.094 21.32 21.32 0 1 0-36.406-15.094l-42.672 42.688a21.218 21.218 0 0 0-6.25 15.062c0 11.782 9.548 21.344 21.328 21.344zM277.328 469.336a21.32 21.32 0 0 0 15.078-6.25l42.656-42.656a21.24 21.24 0 0 0 6.266-15.094c0-11.782-9.562-21.344-21.344-21.344a21.32 21.32 0 0 0-15.078 6.25l-42.672 42.688a21.218 21.218 0 0 0-6.25 15.062c0 11.782 9.562 21.344 21.344 21.344zM170.656 704.008c0-11.812-9.546-21.312-21.328-21.312a21.234 21.234 0 0 0-15.094 6.25l-42.656 42.624a21.31 21.31 0 0 0-6.25 15.124c0 11.75 9.546 21.312 21.328 21.312 5.89 0 11.234-2.376 15.094-6.25l42.656-42.688a21.152 21.152 0 0 0 6.25-15.06zM255.984 704.008c0-11.812-9.546-21.312-21.328-21.312a21.234 21.234 0 0 0-15.094 6.25l-42.656 42.624a21.31 21.31 0 0 0-6.25 15.124c0 11.75 9.546 21.312 21.328 21.312 5.906 0 11.234-2.376 15.094-6.25l42.656-42.688a21.152 21.152 0 0 0 6.25-15.06zM319.984 682.696a21.196 21.196 0 0 0-15.078 6.25l-42.656 42.624a21.258 21.258 0 0 0-6.266 15.124c0 11.75 9.562 21.312 21.344 21.312 5.89 0 11.218-2.376 15.078-6.25l42.656-42.688a21.108 21.108 0 0 0 6.266-15.062c0-11.81-9.562-21.31-21.344-21.31z" fill="#434A54" p-id="7429"></path><path d="M0 554.696h494.704v42.624H0z" fill="#434A54" p-id="7430"></path><path d="M1024 296.054l-0.124-2.188c0-6.812-5.562-12.406-12.376-12.438-56.25-2.124-197.468-16.812-299.062-107.344l-2.032-1.124 0.094-0.376a12.816 12.816 0 0 0-6.562-1.906c-2.968 0.032-5.938 1.188-8.25 3.282-101.688 90.658-242.954 105.344-298.938 107.47-7.078 0.032-12.594 5.624-12.64 12.438l-0.124 3.218c9.312 255.484 167.578 453.61 313.016 554.11 4.188 2.812 9.812 2.812 13.938 0l2-1.312C858.062 748.82 1015.188 550.82 1024 296.054z" fill="#A0D468" p-id="7431"></path><path d="M725.532 362.68c0-11.782-9.532-21.344-21.344-21.344-11.75 0-21.312 9.562-21.312 21.344v298.64c0 11.812 9.562 21.376 21.312 21.376 11.812 0 21.344-9.562 21.344-21.376V362.68z" fill="#8CC153" p-id="7432"></path></svg>