<?xml version="1.0" standalone="no"?><!DOCTYPE svg PUBLIC "-//W3C//DTD SVG 1.1//EN" "http://www.w3.org/Graphics/SVG/1.1/DTD/svg11.dtd"><svg t="1578481613570" class="icon" viewBox="0 0 1024 1024" version="1.1" xmlns="http://www.w3.org/2000/svg" p-id="5178" xmlns:xlink="http://www.w3.org/1999/xlink" width="200" height="200"><defs><style type="text/css"></style></defs><path d="M48 873.6a464 121.6 0 1 0 928 0 464 121.6 0 1 0-928 0Z" fill="#DAE9FF" p-id="5179"></path><path d="M787.2 373.6h-544c-52.8 0-96-43.2-96-96v-72c0-52.8 43.2-96 96-96h544c52.8 0 96 43.2 96 96v72c0 52.8-43.2 96-96 96z" fill="#1D85DB" p-id="5180"></path><path d="M787.2 334.4h-544c-52.8 0-96-43.2-96-96v-37.6c0-52.8 43.2-96 96-96h544c52.8 0 96 43.2 96 96v37.6c0 52.8-43.2 96-96 96z" fill="#459DF5" p-id="5181"></path><path d="M791.2 252.8H536.8c-16.8 0-30.4-13.6-30.4-30.4 0-16.8 13.6-30.4 30.4-30.4h254.4c16.8 0 30.4 13.6 30.4 30.4 0 16.8-13.6 30.4-30.4 30.4z" fill="#B8FAFF" p-id="5182"></path><path d="M788 246.4h-256c-16.8 0-30.4-13.6-30.4-30.4 0-16.8 13.6-30.4 30.4-30.4h256c16.8 0 30.4 13.6 30.4 30.4v0.8c-0.8 16.8-13.6 29.6-30.4 29.6z" fill="#FFFFFF" p-id="5183"></path><path d="M226.4 250.4h-4.8c-14.4 0-25.6-11.2-25.6-25.6V216c0-14.4 11.2-25.6 25.6-25.6h4.8c14.4 0 25.6 11.2 25.6 25.6v9.6c0 13.6-11.2 24.8-25.6 24.8z" fill="#B8FAFF" p-id="5184"></path><path d="M224 244c-15.2 0.8-28.8-12-28.8-27.2-0.8-15.2 12-28.8 27.2-28.8 15.2-0.8 28.8 12 28.8 27.2 0.8 15.2-12 28.8-27.2 28.8z" fill="#FFFFFF" p-id="5185"></path><path d="M787.2 628.8h-544c-52.8 0-96-43.2-96-96V480c0-52.8 43.2-96 96-96h544c52.8 0 96 43.2 96 96v52.8c0 52.8-43.2 96-96 96z" fill="#1D85DB" p-id="5186"></path><path d="M787.2 596h-544c-52.8 0-96-43.2-96-96v-37.6c0-52.8 43.2-96 96-96h544c52.8 0 96 43.2 96 96v37.6c0 52.8-43.2 96-96 96z" fill="#459DF5" p-id="5187"></path><path d="M791.2 515.2H536.8c-16.8 0-30.4-13.6-30.4-30.4 0-16.8 13.6-30.4 30.4-30.4h254.4c16.8 0 30.4 13.6 30.4 30.4 0 16.8-13.6 30.4-30.4 30.4z" fill="#B8FAFF" p-id="5188"></path><path d="M788 508.8h-256c-16.8 0-30.4-13.6-30.4-30.4v-0.8c0-16.8 13.6-30.4 30.4-30.4h256c16.8 0 30.4 13.6 30.4 30.4v0.8c-0.8 16.8-13.6 30.4-30.4 30.4z" fill="#FFFFFF" p-id="5189"></path><path d="M787.2 885.6h-544c-52.8 0-96-43.2-96-96v-52.8c0-52.8 43.2-96 96-96h544c52.8 0 96 43.2 96 96v52.8c0 52.8-43.2 96-96 96z" fill="#1D85DB" p-id="5190"></path><path d="M787.2 853.6h-544c-52.8 0-96-43.2-96-96V720c0-52.8 43.2-96 96-96h544c52.8 0 96 43.2 96 96v37.6c0 52.8-43.2 96-96 96z" fill="#459DF5" p-id="5191"></path><path d="M791.2 784.8H536.8c-16.8 0-30.4-13.6-30.4-30.4 0-16.8 13.6-30.4 30.4-30.4h254.4c16.8 0 30.4 13.6 30.4 30.4 0 16.8-13.6 30.4-30.4 30.4z" fill="#B8FAFF" p-id="5192"></path><path d="M788 778.4h-256c-16.8 0-30.4-13.6-30.4-30.4v-0.8c0-16.8 13.6-30.4 30.4-30.4h256c16.8 0 30.4 13.6 30.4 30.4v0.8c-0.8 16.8-13.6 30.4-30.4 30.4z" fill="#FFFFFF" p-id="5193"></path><path d="M226.4 512.8h-4.8c-14.4 0-25.6-11.2-25.6-25.6v-9.6c0-14.4 11.2-25.6 25.6-25.6h4.8c14.4 0 25.6 11.2 25.6 25.6v9.6c0 13.6-11.2 25.6-25.6 25.6z" fill="#B8FAFF" p-id="5194"></path><path d="M224 506.4c-15.2 0.8-28.8-12-28.8-27.2-0.8-15.2 12-28.8 27.2-28.8 15.2-0.8 28.8 12 28.8 27.2 0.8 15.2-12 28-27.2 28.8z" fill="#FFFFFF" p-id="5195"></path><path d="M226.4 782.4h-4.8c-14.4 0-25.6-11.2-25.6-25.6v-9.6c0-14.4 11.2-25.6 25.6-25.6h4.8c14.4 0 25.6 11.2 25.6 25.6v9.6c0 14.4-11.2 25.6-25.6 25.6z" fill="#B8FAFF" p-id="5196"></path><path d="M224 776c-15.2 0.8-28.8-12-28.8-27.2-0.8-15.2 12-28.8 27.2-28.8 15.2-0.8 28.8 12 28.8 27.2 0.8 15.2-12 28-27.2 28.8z" fill="#FFFFFF" p-id="5197"></path></svg>