<?xml version="1.0" standalone="no"?><!DOCTYPE svg PUBLIC "-//W3C//DTD SVG 1.1//EN" "http://www.w3.org/Graphics/SVG/1.1/DTD/svg11.dtd"><svg t="1578481318666" class="icon" viewBox="0 0 1024 1024" version="1.1" xmlns="http://www.w3.org/2000/svg" p-id="2189" xmlns:xlink="http://www.w3.org/1999/xlink" width="200" height="200"><defs><style type="text/css"></style></defs><path d="M96 160h832v576H96z" fill="#FFEDEB" p-id="2190"></path><path d="M928 768H96a32 32 0 0 1-32-32V160a32 32 0 0 1 32-32h832a32 32 0 0 1 32 32v576a32 32 0 0 1-32 32zM128 704h768V192H128v512zM832 896H192a32 32 0 0 1 0-64h640a32 32 0 0 1 0 64z" fill="#EF8D48" p-id="2191"></path><path d="M233.76 335.328h52.864l68.992 101.376v-101.376h53.376v183.264h-53.376l-68.64-100.64v100.64H233.76v-183.264zM556.768 488.32H492.48l-8.928 30.24h-57.824l68.864-183.264h61.76l68.864 183.264h-59.296l-9.152-30.24z m-11.712-39.616l-20.256-65.888-20 65.888h40.256zM633.376 457.952l53.888-3.36c1.184 8.736 3.552 15.424 7.136 20 5.824 7.424 14.176 11.136 24.992 11.136 8.064 0 14.304-1.888 18.688-5.696s6.56-8.192 6.56-13.184c0-4.736-2.08-8.992-6.24-12.736s-13.824-7.296-28.992-10.624c-24.832-5.568-42.56-12.992-53.12-22.24a44.8 44.8 0 0 1-16-35.36c0-9.408 2.72-18.304 8.192-26.688s13.664-14.944 24.64-19.744 25.984-7.2 45.056-7.2c23.424 0 41.28 4.352 53.568 13.056s19.616 22.56 21.952 41.568l-53.376 3.136c-1.408-8.256-4.384-14.24-8.928-18.016s-10.816-5.632-18.816-5.632c-6.592 0-11.552 1.376-14.88 4.192s-4.992 6.176-4.992 10.176c0 2.912 1.376 5.536 4.128 7.872 2.656 2.432 8.992 4.672 19.008 6.752 24.736 5.344 42.496 10.72 53.184 16.192s18.496 12.224 23.36 20.32 7.328 17.12 7.328 27.136c0 11.744-3.264 22.592-9.76 32.512s-15.584 17.44-27.264 22.56-26.368 7.68-44.128 7.68c-31.168 0-52.736-6.016-64.736-18.016s-18.88-27.296-20.448-45.792z" fill="#EF8D48" p-id="2192"></path></svg>